HIERARCHY
ROOT rootx
{
    OFFSET 0.0 0.0 0.0
    CHANNELS 6 Xposition Yposition Zposition Zrotation Xrotation Yrotation
    JOINT spine_01x
    {
        OFFSET 0.0 5.0 0.0
        CHANNELS 3 Zrotation Xrotation Yrotation
        JOINT spine_02x
        {
            OFFSET 0.0 5.0 0.0
            CHANNELS 3 Zrotation Xrotation Yrotation
            JOINT spine_03x
            {
                OFFSET 0.0 5.0 0.0
                CHANNELS 3 Zrotation Xrotation Yrotation
                JOINT neckx
                {
                    OFFSET 0.0 8.0 0.0
                    CHANNELS 3 Zrotation Xrotation Yrotation
                    JOINT headx
                    {
                        OFFSET 0.0 5.0 0.0
                        CHANNELS 3 Zrotation Xrotation Yrotation
                        End Site
                        {
                            OFFSET 0.0 3.0 0.0
                        }
                    }
                }
                JOINT shoulderr
                {
                    OFFSET 5.0 0.0 0.0
                    CHANNELS 3 Zrotation Xrotation Yrotation
                    JOINT arm_stretchr
                    {
                        OFFSET 0.0 -10.0 0.0
                        CHANNELS 3 Zrotation Xrotation Yrotation
                        JOINT forearm_stretchr
                        {
                            OFFSET 0.0 -10.0 0.0
                            CHANNELS 3 Zrotation Xrotation Yrotation
                            End Site
                            {
                                OFFSET 0.0 -3.0 0.0
                            }
                        }
                    }
                }
                JOINT shoulderl
                {
                    OFFSET -5.0 0.0 0.0
                    CHANNELS 3 Zrotation Xrotation Yrotation
                    JOINT arm_stretchl
                    {
                        OFFSET 0.0 -10.0 0.0
                        CHANNELS 3 Zrotation Xrotation Yrotation
                        JOINT forearm_stretchl
                        {
                            OFFSET 0.0 -10.0 0.0
                            CHANNELS 3 Zrotation Xrotation Yrotation
                            End Site
                            {
                                OFFSET 0.0 -3.0 0.0
                            }
                        }
                    }
                }
            }
        }
    }
    JOINT thigh_stretchl
    {
        OFFSET -2.0 0.0 0.0
        CHANNELS 3 Zrotation Xrotation Yrotation
        JOINT leg_stretchl
        {
            OFFSET 0.0 -10.0 0.0
            CHANNELS 3 Zrotation Xrotation Yrotation
            End Site
            {
                OFFSET 0.0 -3.0 0.0
            }
        }
    }
    JOINT thigh_stretchr
    {
        OFFSET 2.0 0.0 0.0
        CHANNELS 3 Zrotation Xrotation Yrotation
        JOINT leg_stretchr
        {
            OFFSET 0.0 -10.0 0.0
            CHANNELS 3 Zrotation Xrotation Yrotation
            End Site
            {
                OFFSET 0.0 -3.0 0.0
            }
        }
    }
}

MOTION
Frames: 24
Frame Time: 0.033333
5.000000 0.000000 1.763356 0.000000 0.000000 0.000000 -3.000000 -0.728115 0.600000 -1.977542 -0.439700 0.387565 -1.433005 -0.290750 0.263275 -0.900447 -0.165028 0.146338 -0.660268 -0.107080 0.086448 -20.000000 -4.854102 4.000000 -29.663132 -6.595506 5.813475 -38.213460 -7.753330 7.020660 0.000000 1.854102 0.000000 -4.483144 1.736475 -1.484424 -11.820808 0.889096 -3.835404 -15.000000 -3.640576 3.000000 -24.719277 -5.496255 4.844562 0.000000 1.390576 0.000000 -3.735953 1.447062 -1.237020
4.997533 0.000000 1.717296 0.000000 0.000000 0.000000 -2.986686 -0.686198 0.592613 -1.940639 -0.407699 0.367312 -1.384929 -0.264052 0.237534 -0.855517 -0.145688 0.123210 -0.614828 -0.090597 0.064322 -19.911239 -4.574655 3.950753 -29.109585 -6.115491 5.509686 -36.931431 -7.041390 6.334235 -1.882166 1.418994 -0.625738 -7.254795 1.066339 -2.375576 -15.364551 -0.014867 -4.886457 -14.933429 -3.430991 2.963065 -24.257988 -5.096243 4.591405 -1.411625 1.064245 -0.469303 -6.045662 0.888616 -1.979647
4.990134 0.000000 1.670627 0.000000 0.000000 0.000000 -2.946862 -0.640382 0.570634 -1.886511 -0.373382 0.338015 -1.324560 -0.235854 0.205944 -0.802993 -0.125520 0.097048 -0.563931 -0.073598 0.040613 -19.645745 -4.269214 3.804226 -28.297659 -5.600727 5.070231 -35.321596 -6.289439 5.491840 -3.747626 0.975823 -1.236068 -9.962052 0.390143 -3.208233 -18.771918 -0.918746 -5.817190 -14.734309 -3.201911 2.853170 -23.581383 -4.667272 4.225192 -2.810720 0.731867 -0.927051 -8.301710 0.325119 -2.673528
4.977810 0.000000 1.623364 0.000000 0.000000 0.000000 -2.880881 -0.590927 0.534604 -1.815637 -0.336943 0.300395 -1.252434 -0.206316 0.169283 -0.743342 -0.104638 0.068496 -0.508027 -0.056182 0.015903 -19.205874 -3.939515 3.564026 -27.234561 -5.054138 4.505929 -33.398244 -5.501750 4.514217 -5.579822 0.527107 -1.815962 -12.580885 -0.288269 -3.961893 -22.012663 -1.817404 -6.604683 -14.404405 -2.954636 2.673020 -22.695468 -4.211782 3.754941 -4.184867 0.395330 -1.361971 -10.484071 -0.240224 -3.301578
4.960574 0.000000 1.575524 0.000000 0.000000 0.000000 -2.789329 -0.538114 0.485410 -1.728649 -0.298589 0.255378 -1.169192 -0.175605 0.128454 -0.677093 -0.083162 0.038258 -0.447615 -0.038446 -0.009198 -18.595530 -3.587430 3.236068 -25.929728 -4.478831 3.830677 -31.178446 -4.682799 3.425440 -7.362491 0.075396 -2.351141 -15.088049 -0.965044 -4.617999 -25.058022 -2.705736 -7.229548 -13.946647 -2.690572 2.427051 -21.608106 -3.732359 3.192231 -5.521868 0.056547 -1.763356 -12.573374 -0.804203 -3.848332
4.938442 0.000000 1.527124 0.000000 0.000000 0.000000 -2.673020 -0.482244 0.424264 -1.626316 -0.258538 0.204073 -1.075572 -0.143896 0.084462 -0.604834 -0.061213 0.007078 -0.383230 -0.020492 -0.034073 -17.820130 -3.214961 2.828427 -24.394740 -3.878074 3.061101 -28.681907 -3.837239 2.252316 -9.079810 -0.376743 -2.828427 -17.461291 -1.636335 -5.160393 -27.880965 -3.578693 -7.676397 -13.365098 -2.411221 2.121320 -20.328950 -3.231728 2.550918 -6.809857 -0.282557 -2.121320 -14.551076 -1.363612 -4.300328
4.911436 0.000000 1.478182 0.000000 0.000000 0.000000 -2.532984 -0.423634 0.352671 -1.509548 -0.217019 0.147743 -0.972404 -0.111370 0.038390 -0.527206 -0.038917 -0.024276 -0.315443 -0.002421 -0.058109 -16.886559 -2.824224 2.351141 -22.643222 -3.255281 2.216151 -25.930785 -2.969876 1.023733 -10.716536 -0.826742 -3.236068 -19.679545 -2.298327 -5.575722 -30.456434 -4.431315 -7.934228 -12.664919 -2.118168 1.763356 -18.869352 -2.712734 1.846792 -8.037402 -0.620056 -2.427051 -16.399621 -1.915273 -4.646435
4.879584 0.000000 1.428715 0.000000 0.000000 0.000000 -2.370465 -0.362616 0.272394 -1.379381 -0.174266 0.087775 -0.860606 -0.078211 -0.008627 -0.444899 -0.016399 -0.055033 -0.244856 0.015663 -0.080714 -15.803100 -2.417439 1.815962 -20.690722 -2.613991 1.316631 -22.949500 -2.085637 -0.230057 -12.258141 -1.272043 -3.564026 -21.723122 -2.947261 -5.853758 -32.761570 -5.258757 -7.996691 -11.852325 -1.813079 1.361971 -17.242268 -2.178326 1.097192 -9.193606 -0.954032 -2.673020 -18.102601 -2.456051 -4.878132
4.842916 0.000000 1.378740 0.000000 0.000000 0.000000 -2.186906 -0.299538 0.185410 -1.236971 -0.130523 0.025646 -0.741169 -0.044608 -0.055432 -0.358643 0.006212 -0.084435 -0.172096 0.033659 -0.101332 -14.579373 -1.996917 1.236068 -18.554570 -1.957848 0.384692 -19.764513 -1.189547 -1.478183 -13.690942 -1.710116 -3.804226 -23.573883 -3.579447 -5.987655 -34.775912 -6.056318 -7.862250 -10.934529 -1.497688 0.927051 -15.462141 -1.631540 0.320576 -10.268207 -1.282587 -2.853170 -19.644902 -2.982873 -4.989713
4.801468 0.000000 1.328275 0.000000 0.000000 0.000000 -1.983936 -0.234757 0.093861 -1.083582 -0.086039 -0.037115 -0.615154 -0.010751 -0.100872 -0.269204 0.028788 -0.111757 -0.097808 0.051463 -0.119454 -13.226237 -1.565049 0.625738 -16.253725 -1.290580 -0.556720 -16.404095 -0.286698 -2.689911 -15.002221 -2.138471 -3.950753 -25.215400 -4.191294 -5.974116 -36.481580 -6.819466 -7.534214 -9.919678 -1.173787 0.469303 -13.544771 -1.075483 -0.463934 -11.251666 -1.603853 -2.963065 -21.012834 -3.492745 -4.978430
4.755283 0.000000 1.277338 0.000000 0.000000 0.000000 -1.763356 -0.168643 0.000000 -0.920574 -0.041065 -0.098962 -0.483678 0.023167 -0.143828 -0.177375 0.051199 -0.136328 -0.022652 0.068974 -0.134635 -11.755705 -1.124288 0.000000 -13.808612 -0.615978 -1.484424 -12.898073 0.617780 -3.835404 -16.180340 -2.554676 -4.000000 -26.633104 -4.779326 -5.813475 -37.863435 -7.543864 -7.020660 -8.816779 -0.843216 0.000000 -11.507177 -0.513315 -1.237020 -12.135255 -1.916007 -3.000000 -22.194253 -3.982772 -4.844562
4.704404 0.000000 1.225947 0.000000 0.000000 0.000000 -1.527124 -0.101571 -0.093861 -0.749395 0.004142 -0.158372 -0.347909 0.056953 -0.183242 -0.083972 0.073321 -0.157542 0.052705 0.086094 -0.146501 -10.180828 -0.677138 -0.625738 -11.240932 0.062123 -2.375576 -9.277567 1.518748 -4.886457 -17.214841 -2.956364 -3.950753 -27.814411 -5.340200 -5.509686 -38.909212 -8.225397 -6.334235 -7.635621 -0.507854 -0.469303 -9.367444 0.051770 -1.979647 -12.911130 -2.217273 -2.963065 -23.178676 -4.450167 -4.591405
4.648882 0.000000 1.174121 0.000000 0.000000 0.000000 -1.277338 -0.033921 -0.185410 -0.571565 0.049325 -0.213882 -0.209052 0.090416 -0.218145 0.010177 0.095025 -0.174876 0.127594 0.102725 -0.154760 -8.515586 -0.226141 -1.236068 -8.573478 0.739872 -3.208233 -5.574713 2.411086 -5.817190 -18.096541 -3.341254 -3.804226 -28.748834 -5.870731 -5.070231 -39.609627 -8.860191 -5.491840 -6.386689 -0.169606 -0.927051 -7.144565 0.616560 -2.673528 -13.572406 -2.505940 -2.853170 -23.957362 -4.892275 -4.225192
4.588773 0.000000 1.121878 0.000000 0.000000 0.000000 -1.016214 0.033921 -0.272394 -0.388662 0.094228 -0.264126 -0.068339 0.123365 -0.247676 0.104235 0.116189 -0.187905 0.201351 0.118772 -0.159208 -6.774758 0.226141 -1.815962 -5.829924 1.413417 -3.961893 -1.822377 3.289724 -6.604683 -18.817615 -3.707158 -3.564026 -29.428082 -6.367902 -4.505929 -39.958465 -9.444640 -4.514217 -5.081069 0.169606 -1.361971 -4.858270 1.177847 -3.301578 -14.113212 -2.780368 -2.673020 -24.523401 -5.306585 -3.754941
4.524135 0.000000 1.069236 0.000000 0.000000 0.000000 -0.746070 0.101571 -0.352671 -0.202308 0.138595 -0.307867 0.072980 0.155613 -0.271108 0.197368 0.136694 -0.196307 0.273320 0.134144 -0.159735 -4.973798 0.677138 -2.351141 -3.034623 2.078930 -4.617999 1.946135 4.149669 -7.229548 -19.371663 -4.051997 -3.236068 -29.846123 -6.828890 -3.830677 -39.952629 -9.975422 -3.425440 -3.730348 0.507854 -1.763356 -2.528853 1.732441 -3.848332 -14.528747 -3.038998 -2.427051 -24.871769 -5.690742 -3.192231
4.455033 0.000000 1.016214 0.000000 0.000000 0.000000 -0.469303 0.168643 -0.424264 -0.014159 0.182175 -0.344026 0.213651 0.186976 -0.287865 0.288749 0.156421 -0.199875 0.342864 0.148753 -0.156330 -3.128689 1.124288 -2.828427 -0.212387 2.732630 -5.160393 5.697372 4.986034 -7.676397 -19.753767 -4.373812 -2.828427 -29.999248 -7.251075 -3.061101 -39.592170 -10.449523 -2.252316 -2.346517 0.843216 -2.121320 -0.176989 2.277192 -4.300328 -14.815325 -3.280359 -2.121320 -24.999373 -6.042562 -2.550918
4.381533 0.000000 0.962831 0.000000 0.000000 0.000000 -0.188372 0.234757 -0.485410 0.174116 0.224720 -0.371715 0.352426 0.217278 -0.297534 0.377568 0.175260 -0.198521 0.409364 0.162518 -0.149075 -1.255810 1.565049 -3.236068 2.611734 3.370803 -5.575722 9.398040 5.794068 -7.934228 -19.960535 -4.670774 -2.351141 -29.886098 -7.632058 -2.216151 -38.880289 -10.864247 -1.023733 -0.941858 1.173787 -2.427051 2.176445 2.809003 -4.646435 -14.970401 -3.503080 -1.763356 -24.905082 -6.360048 -1.846792
4.303710 0.000000 0.909106 0.000000 0.000000 0.000000 0.094232 0.299538 -0.534604 0.360845 0.265988 -0.390251 0.488073 0.246344 -0.299876 0.463035 0.193103 -0.192279 0.472231 0.175359 -0.138149 0.628215 1.996917 -3.564026 5.412673 3.989822 -5.853758 13.015289 6.569179 -7.996691 -19.990131 -4.941196 -1.815962 -29.507676 -7.969674 -1.316631 -37.823303 -11.217238 0.230057 0.471161 1.497688 -2.673020 4.510561 3.324852 -4.878132 -14.992598 -3.705897 -1.361971 -24.589730 -6.641395 -1.097192
4.221640 0.000000 0.855058 0.000000 0.000000 0.000000 0.376000 0.362616 -0.570634 0.544371 0.305745 -0.399177 0.619388 0.274011 -0.294834 0.544392 0.209848 -0.181303 0.530906 0.187204 -0.123822 2.506665 2.417439 -3.804226 8.165569 4.586171 -5.987655 16.517014 7.306963 -7.862250 -19.842294 -5.183541 -1.236068 -28.867343 -8.262004 -0.384692 -36.430595 -11.506490 1.478183 1.879999 1.813079 -2.853170 6.804641 3.821809 -4.989713 -14.881721 -3.887655 -0.927051 -24.056119 -6.885004 -0.320576
4.135403 0.000000 0.800706 0.000000 0.000000 0.000000 0.654430 0.423634 -0.592613 0.723066 0.343764 -0.398274 0.745205 0.300121 -0.282533 0.620917 0.225402 -0.165862 0.584868 0.197985 -0.106446 4.362865 2.824224 -3.950753 10.845987 5.156460 -5.974116 19.872133 8.003227 -7.534214 -19.518335 -5.396432 -0.625738 -27.970781 -8.507389 0.556720 -34.714526 -11.730360 2.689911 3.272149 2.118168 -2.963065 9.038323 4.297050 -4.978430 -14.638751 -4.047324 -0.469303 -23.308984 -7.089490 0.463934
4.045085 0.000000 0.746070 0.000000 0.000000 0.000000 0.927051 0.482244 -0.600000 0.895342 0.379830 -0.387565 0.864407 0.324526 -0.263275 0.691930 0.239674 -0.146338 0.633640 0.207640 -0.086448 6.180340 3.214961 -4.000000 13.430135 5.697448 -5.813475 23.050865 8.654015 -7.020660 -19.021130 -5.578659 -0.000000 -26.825948 -8.704432 1.484424 -32.690329 -11.887577 3.835404 4.635255 2.411221 -3.000000 11.191779 4.747874 -4.844562 -14.265848 -4.183994 -0.000000 -22.354956 -7.253693 1.237020
3.950775 0.000000 0.691168 0.000000 0.000000 0.000000 1.191444 0.538114 -0.592613 1.059672 0.413738 -0.367312 0.975937 0.347086 -0.237534 0.756802 0.252585 -0.123210 0.676787 0.216117 -0.064322 7.942958 3.587430 -3.950753 15.895077 6.206063 -5.509686 26.024996 9.255629 -6.334235 -18.355093 -5.729187 0.625738 -25.443006 -8.852015 2.375576 -30.375970 -11.977245 4.886457 5.957218 2.690572 -2.963065 13.245897 5.171719 -4.591405 -13.766319 -4.296890 0.469303 -21.202505 -7.376680 1.979647
3.852566 0.000000 0.636021 0.000000 0.000000 0.000000 1.445261 0.590927 -0.570634 1.214595 0.445294 -0.338015 1.078805 0.367674 -0.205944 0.814957 0.264060 -0.097048 0.713927 0.223365 -0.040613 9.635073 3.939515 -3.804226 18.218932 6.679414 -5.070231 28.768128 9.804651 -5.491840 -17.526134 -5.847161 1.236068 -23.834230 -8.949300 3.208233 -27.791992 -11.998856 5.817190 7.226305 2.954636 -2.853170 15.182443 5.566178 -4.225192 -13.144600 -4.385371 0.927051 -19.861858 -7.457750 2.673528
3.750555 0.000000 0.580648 0.000000 0.000000 0.000000 1.686250 0.640382 -0.534604 1.358738 0.474321 -0.300395 1.172097 0.386174 -0.169283 0.865878 0.274035 -0.068496 0.744730 0.229343 -0.015903 11.241668 4.269214 -3.564026 20.381075 7.114811 -4.505929 31.255911 10.297960 -4.514217 -16.541611 -5.931910 1.815962 -22.013900 -8.995732 3.961893 -24.961330 -11.952288 6.604683 8.431251 3.201911 -2.673020 16.984229 5.929009 -3.754941 -12.406209 -4.448933 1.361971 -18.344917 -7.496444 3.301578
